<?xml version="1.0" encoding="utf-8"?>
<!-- Generator: Adobe Illustrator 24.0.1, SVG Export Plug-In . SVG Version: 6.00 Build 0)  -->
<svg version="1.1" id="Camada_1" xmlns="http://www.w3.org/2000/svg" xmlns:xlink="http://www.w3.org/1999/xlink" x="0px" y="0px"
	 viewBox="0 0 32 32" style="enable-background:new 0 0 32 32;" xml:space="preserve">
<style type="text/css">
	.st0{fill:#FFFFFF;}
</style>
<g>
	<g>
		<g>
			<path class="st0" d="M27.5,6.4h-6.7v-1c0-1.6-1.3-2.9-2.9-2.9h-3.8c-1.6,0-2.9,1.3-2.9,2.9v1H4.5c-0.5,0-1,0.4-1,1s0.4,1,1,1h1
				l1.8,20.3c0,0.5,0.5,0.9,1,0.9h15.4c0.5,0,0.9-0.4,1-0.9l1.8-20.3h1c0.5,0,1-0.4,1-1S28.1,6.4,27.5,6.4z M13.1,5.4
				c0-0.5,0.4-1,1-1h3.8c0.5,0,1,0.4,1,1v1h-5.8L13.1,5.4L13.1,5.4z M22.8,27.5H9.2L7.4,8.3h4.7h12.4L22.8,27.5z"/>
		</g>
	</g>
	<g>
		<g>
			<path class="st0" d="M13.1,24.6L13.1,24.6l-1-13.5c0-0.5-0.5-0.9-1-0.9s-0.9,0.5-0.9,1l1,13.5c0,0.5,0.5,0.9,1,0.9h0.1
				C12.8,25.6,13.2,25.1,13.1,24.6z"/>
		</g>
	</g>
	<g>
		<g>
			<path class="st0" d="M16,10.2c-0.5,0-1,0.4-1,1v13.5c0,0.5,0.4,1,1,1s1-0.4,1-1V11.2C17,10.7,16.5,10.2,16,10.2z"/>
		</g>
	</g>
	<g>
		<g>
			<path class="st0" d="M20.9,10.2c-0.5,0-1,0.4-1,0.9l-1,13.5c0,0.5,0.4,1,0.9,1l0,0h0.1c0.5,0,0.9-0.4,1-0.9l1-13.5
				C21.8,10.7,21.4,10.3,20.9,10.2z"/>
		</g>
	</g>
</g>
</svg>
